<svg width="950" height="1080" viewBox="0 0 950 1080" fill="none" xmlns="http://www.w3.org/2000/svg">
<mask id="mask0_1_264" style="mask-type:alpha" maskUnits="userSpaceOnUse" x="0" y="0" width="950" height="1080">
<rect width="950" height="1080" fill="#018CFE"/>
</mask>
<g mask="url(#mask0_1_264)">
<rect width="950" height="1080" fill="#018CFE"/>
<g opacity="0.12">
<path d="M589.496 513.324H769.748V90.1259C769.748 40.3508 729.397 0 679.622 0C629.847 0 589.496 40.3508 589.496 90.126V513.324Z" fill="#005DA9"/>
<path d="M230.72 753.516H410.972V296.298C410.972 246.523 370.621 206.172 320.846 206.172C271.071 206.172 230.72 246.523 230.72 296.298V753.516Z" fill="#0071CD"/>
<path d="M409.352 753.516H589.496V0H409.352V753.516Z" fill="#018CFE"/>
<path d="M-129.784 1114.02H50.4681V699.57C50.4681 649.795 10.1173 609.444 -39.6579 609.444C-89.4331 609.444 -129.784 649.795 -129.784 699.57V1114.02Z" fill="#018CFE"/>
<path d="M230.612 1074.71H410.756V522.396C410.756 472.651 370.429 432.324 320.684 432.324C270.939 432.324 230.612 472.651 230.612 522.396V1074.71Z" fill="#005DA9"/>
<path d="M-129.892 -34.02H50.3599V518.238C50.3599 568.013 10.0091 608.364 -39.7661 608.364C-89.5413 608.364 -129.892 568.013 -129.892 518.238V-34.02Z" fill="#005DA9"/>
<path d="M589.496 745.848H769.748V998.214C769.748 1043.38 729.394 1080 679.622 1080C629.85 1080 589.496 1043.38 589.496 998.214V745.848Z" fill="#005DA9"/>
<path d="M589.496 432.324H769.748V793.053C769.748 853.168 729.394 901.908 679.622 901.908C629.85 901.908 589.496 853.168 589.496 793.053V432.324Z" fill="#0071CD"/>
<rect x="589.496" y="400.032" width="180.252" height="113.292" fill="#0071CD"/>
<path d="M950 124.416H769.748V423.17C769.748 472.958 810.102 513.324 859.874 513.324C909.646 513.324 950 472.958 950 423.17V124.416Z" fill="#018CFE"/>
<path d="M230.612 124.416H50.3601V423.17C50.3601 472.958 90.714 513.324 140.486 513.324C190.258 513.324 230.612 472.958 230.612 423.17V124.416Z" fill="#018CFE"/>
<path d="M950 881.496H769.748V603.437C769.748 553.672 810.102 513.324 859.874 513.324C909.646 513.324 950 553.672 950 603.437V881.496Z" fill="#005DA9"/>
<path d="M230.504 881.496H50.3601V603.437C50.3601 553.672 90.6898 513.324 140.432 513.324C190.174 513.324 230.504 553.672 230.504 603.437V881.496Z" fill="#49ADFF"/>
<path d="M950 1080H769.748V807.545C769.748 762.141 810.102 725.328 859.874 725.328C909.646 725.328 950 762.141 950 807.545V1080Z" fill="#0071CD"/>
<path d="M230.504 1080H50.3601V807.545C50.3601 762.141 90.6898 725.328 140.432 725.328C190.174 725.328 230.504 762.141 230.504 807.545V1080Z" fill="#0071CD"/>
<path d="M-129.892 -3.05176e-05H50.3601V272.372C50.3601 317.762 10.0062 354.564 -39.7659 354.564C-89.538 354.564 -129.892 317.762 -129.892 272.372V-3.05176e-05Z" fill="#0071CD"/>
<path d="M769.748 34.344C819.56 34.344 859.928 74.673 859.928 124.416H769.748V34.344Z" fill="#018CFE"/>
<path d="M50.3601 34.344C100.112 34.344 140.432 74.673 140.432 124.416H50.3601V34.344Z" fill="#018CFE"/>
<path d="M950 34.344C900.248 34.344 859.928 74.673 859.928 124.416H950V34.344Z" fill="#018CFE"/>
<path d="M230.612 34.344C180.8 34.344 140.432 74.673 140.432 124.416H230.612V34.344Z" fill="#018CFE"/>
<path d="M769.748 5.15026V-3.8147e-06H859.928V34.344C810.122 34.344 769.748 21.2737 769.748 5.15026Z" fill="#005DA9"/>
<path d="M50.3601 5.15026V-3.8147e-06H140.432V34.344C90.6861 34.344 50.3601 21.2737 50.3601 5.15026Z" fill="#005DA9"/>
<path d="M859.928 34.344V-3.8147e-06H950V5.15026C950 21.2737 909.674 34.344 859.928 34.344Z" fill="#005DA9"/>
<path d="M140.432 34.344V-3.8147e-06H230.612V5.15026C230.612 21.2737 190.238 34.344 140.432 34.344Z" fill="#005DA9"/>
<path d="M589.496 490.212C639.308 490.212 679.676 449.835 679.676 400.032H589.496V490.212Z" fill="#005DA9"/>
<path d="M769.748 490.212C719.996 490.212 679.676 449.835 679.676 400.032H769.748V490.212Z" fill="#005DA9"/>
<path d="M230.612 1053.29V1080H410.756V901.908C311.264 901.908 230.612 969.684 230.612 1053.29Z" fill="#94CFFF"/>
<path d="M410.756 901.908V1080H590.9V1053.29C590.9 969.684 510.248 901.908 410.756 901.908Z" fill="#0071CD"/>
<path d="M500.882 492.804C550.654 492.804 591.008 533.148 591.008 582.908V791.392C591.008 841.152 550.654 881.496 500.882 881.496C451.11 881.496 410.756 841.152 410.756 791.392V582.908C410.756 533.148 451.11 492.804 500.882 492.804Z" fill="#49ADFF"/>
<path d="M-39.928 725.436C9.81425 725.436 50.144 762.238 50.144 807.628V997.808C50.144 1043.2 9.81425 1080 -39.928 1080C-89.6703 1080 -130 1043.2 -130 997.808V807.628C-130 762.238 -89.6703 725.436 -39.928 725.436Z" fill="#49ADFF"/>
<path d="M591.008 0V26.6907C591.008 110.249 510.356 177.984 410.864 177.984V0H591.008Z" fill="#005DA9"/>
<path d="M410.864 0V177.984C311.372 177.984 230.72 110.249 230.72 26.6907V0H410.864Z" fill="#0071CD"/>
</g>
</g>
</svg>
